<?xml version="1.0" standalone="no"?>
<!DOCTYPE svg PUBLIC "-//W3C//DTD SVG 20010904//EN"
 "http://www.w3.org/TR/2001/REC-SVG-20010904/DTD/svg10.dtd">
<svg version="1.0" xmlns="http://www.w3.org/2000/svg"
 width="724.000000pt" height="703.000000pt" viewBox="0 0 724.000000 703.000000"
 preserveAspectRatio="xMidYMid meet">

<g transform="translate(0.000000,703.000000) scale(0.100000,-0.100000)"
fill="#000000" stroke="none">
<path d="M4268 6505 c-88 -20 -267 -82 -404 -140 -248 -106 -544 -264 -590
-316 -24 -27 -106 -261 -125 -354 -11 -58 -11 -63 23 -150 40 -103 96 -216
161 -325 42 -70 44 -76 26 -84 -12 -6 -19 -19 -19 -35 1 -37 36 -111 54 -111
9 0 19 -16 26 -39 30 -111 137 -201 240 -201 79 0 150 37 187 97 50 82 69 96
117 90 69 -10 94 -24 115 -65 49 -97 128 -144 251 -150 98 -5 170 17 243 72
49 37 103 121 112 175 5 33 11 39 43 47 32 8 41 17 63 63 l26 53 6 -53 c2 -30
-1 -112 -9 -184 -17 -158 -17 -198 -4 -190 18 11 127 203 150 265 24 64 26 65
83 49 60 -16 114 -72 133 -136 18 -62 14 -99 -21 -188 l-24 -60 92 95 c118
122 185 209 209 272 71 188 87 637 26 736 -46 75 -176 133 -345 152 -47 5 -88
12 -91 14 -9 9 93 67 148 84 40 12 91 17 187 17 129 0 132 1 110 18 -46 36
-125 76 -191 96 -68 21 -198 29 -223 13 -14 -9 -73 -121 -73 -139 0 -27 -16
-10 -49 50 -70 128 -146 234 -225 313 -141 141 -273 186 -438 149z m-299 -975
c46 -6 138 -24 205 -41 222 -54 420 -70 552 -43 l30 6 27 -144 c31 -164 31
-164 15 -150 -31 25 -186 55 -313 59 -174 7 -262 -16 -400 -104 -43 -27 -45
-30 -45 -74 l0 -47 -42 10 c-24 5 -58 7 -75 4 -32 -5 -33 -3 -33 29 0 25 -8
40 -35 64 -56 49 -148 91 -215 98 -33 3 -60 9 -60 12 0 3 3 16 6 29 6 20 13
22 64 22 31 0 92 -10 136 -21 136 -37 134 -37 134 4 0 63 -76 106 -193 110
-29 1 -68 -2 -88 -6 l-36 -7 8 47 c22 119 29 126 139 141 91 13 124 13 219 2z
m554 -381 c109 -17 111 -18 104 -100 -7 -86 -33 -144 -84 -190 -56 -50 -126
-72 -218 -67 -63 3 -80 8 -117 34 -51 35 -83 89 -96 161 -8 44 -6 55 7 67 29
27 135 74 191 85 30 6 64 13 75 15 37 7 66 6 138 -5z m-798 -49 c88 -42 113
-69 98 -106 -4 -12 -16 -6 -52 30 -52 51 -93 68 -131 54 l-25 -9 28 -15 c21
-11 27 -22 27 -47 0 -59 46 -97 78 -65 7 7 12 20 12 30 0 21 1 21 35 6 30 -14
31 -27 5 -79 -28 -53 -72 -79 -135 -79 -103 0 -180 86 -191 212 l-5 63 30 -52
c36 -60 36 -63 16 -63 -20 0 -19 -13 4 -34 18 -17 19 -14 31 71 17 130 14 123
68 117 26 -3 74 -19 107 -34z m1000 15 c0 -13 -8 -21 -22 -23 -19 -3 -23 1
-23 23 0 22 4 26 23 23 14 -2 22 -10 22 -23z m-1325 -25 c0 -11 -6 -20 -14
-20 -18 0 -29 16 -21 30 11 18 35 11 35 -10z"/>
<path d="M4170 5351 c-29 -11 -60 -27 -67 -37 -17 -23 -17 -65 0 -88 13 -18
17 -17 98 3 167 43 337 38 478 -15 53 -20 61 -21 50 -7 -52 64 -171 132 -267
152 -84 18 -228 13 -292 -8z"/>
<path d="M4353 5073 c-7 -2 -13 -15 -13 -27 0 -23 -24 -63 -50 -83 -13 -10
-12 -14 9 -37 64 -69 175 11 131 94 -9 17 -5 19 45 25 30 4 55 11 55 15 0 15
-147 26 -177 13z"/>
<path d="M334 4800 c-35 -14 -72 -67 -79 -113 -3 -23 -5 -422 -3 -887 3 -926
0 -881 63 -920 31 -19 52 -20 454 -20 l421 0 0 -185 0 -185 -280 0 -280 0 0
-70 0 -70 2025 0 c1114 0 2025 3 2025 8 0 4 14 74 30 156 17 82 30 151 30 153
0 3 -20 -22 -44 -54 -58 -79 -85 -99 -176 -127 -228 -72 -610 -116 -1021 -116
l-255 0 -45 30 c-24 16 -56 39 -72 52 -25 21 -31 21 -75 10 -26 -7 -70 -28
-98 -47 -51 -35 -84 -44 -84 -24 0 20 42 70 83 100 22 16 35 29 29 29 -22 0
-68 -25 -132 -71 -79 -57 -120 -71 -120 -41 0 11 12 35 27 52 l27 32 -53 -27
c-53 -26 -81 -27 -81 -3 1 19 77 81 157 129 l68 41 -46 -6 c-104 -12 -203 -78
-240 -161 l-19 -40 0 31 0 32 -276 7 c-151 4 -340 6 -420 3 l-144 -4 0 183 0
183 808 -2 c740 -3 810 -2 844 14 43 19 78 70 78 113 0 25 19 48 120 143 66
63 120 109 120 103 0 -11 -94 -282 -169 -485 -28 -77 -50 -143 -49 -147 4 -11
239 51 428 114 216 71 348 129 382 166 l26 30 44 -34 c104 -81 256 -137 403
-151 112 -10 110 -12 205 198 108 239 221 505 251 593 20 58 24 90 24 186 0
109 -2 119 -30 174 -37 73 -93 111 -186 127 -55 10 -84 8 -189 -10 -185 -32
-192 -34 -239 -97 -83 -110 -200 -175 -315 -175 -94 0 -121 37 -97 129 30 111
32 105 -53 130 -56 17 -88 21 -119 16 -65 -11 -164 -51 -252 -103 -82 -48
-267 -181 -279 -201 -4 -6 -11 -11 -17 -11 -5 0 -9 199 -9 513 0 572 1 561
-70 599 -33 17 -98 18 -1535 17 -825 0 -1509 -4 -1521 -9z"/>
<path d="M4763 4462 c-29 -44 -54 -132 -37 -132 12 0 111 58 167 98 l52 37
-51 5 c-28 3 -61 13 -75 22 -25 16 -26 16 -56 -30z"/>
<path d="M3986 4439 c-22 -5 -41 -10 -42 -12 -1 -1 58 -2 132 -2 114 0 131 2
107 12 -33 14 -141 15 -197 2z"/>
</g>
</svg>
